<?xml version="1.0" encoding="utf-8"?>
<!-- Generator: Adobe Illustrator 25.2.3, SVG Export Plug-In . SVG Version: 6.00 Build 0)  -->
<svg version="1.1" id="Layer_1" xmlns="http://www.w3.org/2000/svg" xmlns:xlink="http://www.w3.org/1999/xlink" x="0px" y="0px"
	 viewBox="0 0 128 128" style="enable-background:new 0 0 128 128;" xml:space="preserve">
<style type="text/css">
	.st0{fill:#FFFFFF;}
</style>
<g>
	<g>
		<g>
			<g>
				<path class="st0" d="M106.8,25.9H87.2V15.3c0-5.5,4.4-9.9,9.8-9.9s9.8,4.4,9.8,9.9V25.9L106.8,25.9z M91.2,21.9h11.6v-6.6
					c0-3.2-2.6-5.9-5.8-5.9c-3.2,0-5.8,2.6-5.8,5.9L91.2,21.9L91.2,21.9z"/>
			</g>
			<g>
				<path class="st0" d="M55.7,114.6h-3.8c-10.8,0-39.5,0-42.4,0v-4c2.9,0,31.6,0,42.4,0h3.8V114.6L55.7,114.6z"/>
			</g>
			<g>
				<path class="st0" d="M18.4,100.5h-4V15.3c0-5,3.7-9.2,8.7-9.8h0.2h4.2c43.5,0,66.6,0,68.6,0l0.2,4c-2.9,0.3-5.1,2.9-5.1,5.8
					v18.3h-4V15.3c0-2.2,0.7-4.2,1.9-5.8c-10.1,0-30.6,0-61.5,0h-4.1c-2.9,0.4-5,2.9-5,5.8L18.4,100.5L18.4,100.5z"/>
			</g>
			<g>
				<path class="st0" d="M8.9,114.6H8.7c-5-0.6-8.7-4.8-8.7-9.8v-6h55.7v4H4v2c0,3,2.2,5.4,5,5.8h3.3c7.4,0,23.9,0,26.7,0v4
					c-2.8,0-19.3,0-26.7,0H8.9z"/>
			</g>
			<g>
				<path class="st0" d="M106.8,26.3h-4v-11c0-3.2-2.6-5.9-5.8-5.9c-3.2,0-5.8,2.6-5.8,5.9h-4c0-5.5,4.4-9.9,9.8-9.9
					s9.8,4.4,9.8,9.9V26.3z"/>
			</g>
		</g>
	</g>
	<g>
		<rect x="42" y="21.9" class="st0" width="37.2" height="4"/>
	</g>
	<g>
		<rect x="42" y="31.1" class="st0" width="13.7" height="4"/>
	</g>
	<g>
		<path class="st0" d="M36.7,34.8H23.9V22h12.8V34.8z M27.9,30.8h4.8V26h-4.8C27.9,26,27.9,30.8,27.9,30.8z"/>
	</g>
	<g>
		<g>
			<rect x="42" y="46.8" class="st0" width="13.7" height="4"/>
		</g>
		<g>
			<rect x="42" y="55.9" class="st0" width="13.7" height="4"/>
		</g>
	</g>
	<g>
		<path class="st0" d="M36.7,59.7H23.9V46.8h12.8V59.7z M27.9,55.7h4.8v-4.9h-4.8C27.9,50.8,27.9,55.7,27.9,55.7z"/>
	</g>
	<g>
		<g>
			<rect x="42" y="71.4" class="st0" width="13.7" height="4"/>
		</g>
		<g>
			<rect x="42" y="80.6" class="st0" width="13.7" height="4"/>
		</g>
	</g>
	<g>
		<path class="st0" d="M36.7,84.3H23.9V71.4h12.8V84.3z M27.9,80.3h4.8v-4.9h-4.8C27.9,75.4,27.9,80.3,27.9,80.3z"/>
	</g>
	<g>
		<g>
			<path class="st0" d="M125,122.6H63.9c-1.7,0-3-1.4-3-3V34.1c0-1.7,1.3-3,3-3H125c1.7,0,3,1.4,3,3v85.4
				C128,121.2,126.7,122.6,125,122.6z M64.9,118.6H124V35.1H64.9V118.6z"/>
		</g>
		<g>
			<path class="st0" d="M125,114.1H63.9c-1.7,0-3-1.4-3-3V44.4h4v65.7H124V44.4h4v66.7C128,112.8,126.7,114.1,125,114.1z"/>
		</g>
		<g>
			<path class="st0" d="M116.9,59.2h-45V44.1h45V59.2z M75.9,55.2h37v-7.1h-37V55.2z"/>
		</g>
		<g>
			<g>
				<rect x="71.4" y="65.3" class="st0" width="8.8" height="4"/>
			</g>
			<g>
				<rect x="83.8" y="65.3" class="st0" width="8.8" height="4"/>
			</g>
			<g>
				<rect x="96.2" y="65.3" class="st0" width="8.8" height="4"/>
			</g>
			<g>
				<rect x="108.7" y="65.3" class="st0" width="8.8" height="4"/>
			</g>
		</g>
		<g>
			<g>
				<rect x="71.4" y="73.9" class="st0" width="8.8" height="4"/>
			</g>
			<g>
				<rect x="83.8" y="73.9" class="st0" width="8.8" height="4"/>
			</g>
			<g>
				<rect x="96.2" y="73.9" class="st0" width="8.8" height="4"/>
			</g>
			<g>
				<rect x="108.7" y="73.9" class="st0" width="8.8" height="4"/>
			</g>
		</g>
		<g>
			<g>
				<rect x="71.4" y="82.6" class="st0" width="8.8" height="4"/>
			</g>
			<g>
				<rect x="83.8" y="82.6" class="st0" width="8.8" height="4"/>
			</g>
			<g>
				<rect x="96.2" y="82.6" class="st0" width="8.8" height="4"/>
			</g>
			<g>
				<rect x="108.7" y="82.6" class="st0" width="8.8" height="4"/>
			</g>
		</g>
		<g>
			<g>
				<rect x="71.4" y="91.3" class="st0" width="8.8" height="4"/>
			</g>
			<g>
				<rect x="83.8" y="91.3" class="st0" width="8.8" height="4"/>
			</g>
			<g>
				<rect x="96.2" y="91.3" class="st0" width="8.8" height="4"/>
			</g>
			<g>
				<rect x="108.7" y="91.3" class="st0" width="8.8" height="4"/>
			</g>
		</g>
		<g>
			<g>
				<rect x="71.4" y="100" class="st0" width="8.8" height="4"/>
			</g>
			<g>
				<rect x="83.8" y="100" class="st0" width="8.8" height="4"/>
			</g>
			<g>
				<rect x="96.2" y="100" class="st0" width="8.8" height="4"/>
			</g>
			<g>
				<rect x="108.7" y="100" class="st0" width="8.8" height="4"/>
			</g>
		</g>
	</g>
</g>
</svg>
