<?xml version="1.0" encoding="utf-8"?>
<!-- Generator: Adobe Illustrator 25.2.3, SVG Export Plug-In . SVG Version: 6.00 Build 0)  -->
<svg version="1.1" id="Layer_1" xmlns="http://www.w3.org/2000/svg" xmlns:xlink="http://www.w3.org/1999/xlink" x="0px" y="0px"
	 viewBox="0 0 128 128" style="enable-background:new 0 0 128 128;" xml:space="preserve">
<style type="text/css">
	.st0{fill:#FFFFFF;}
</style>
<g>
	<path class="st0" d="M110.5,0H26.7c-1.2,0-2.2,1-2.2,2.2v6.1h-7c-1.2,0-2.2,1-2.2,2.2l0,0v115.4c0,1.2,1,2.2,2.2,2.2h83.7
		c1.2,0,2.2-1,2.2-2.2v-6.1h7c1.2,0,2.2-1,2.2-2.2l0,0V2.2C112.6,1,111.7,0,110.5,0z M99.1,123.7H19.7V12.6h63v14.2
		c0,1.2,1,2.2,2.2,2.2h14.2C99.1,29,99.1,123.7,99.1,123.7z M87,15.6l9,9h-9V15.6z M108.3,115.4h-4.8V26.8c0-0.6-0.2-1.1-0.6-1.5
		L86.4,8.9c-0.4-0.4-1-0.6-1.5-0.6h-56v-4h79.4V115.4z"/>
	<path class="st0" d="M86.2,34.1H32.6c-1.2,0-2.2,1-2.2,2.2V52c0,1.2,1,2.2,2.2,2.2l0,0h53.5c1.2,0,2.2-1,2.2-2.2l0,0V36.3
		C88.4,35.1,87.4,34.1,86.2,34.1L86.2,34.1z M84,49.9H34.8V38.4H84V49.9z"/>
	<path class="st0" d="M86.2,63.9H32.6c-1.2,0-2.2,1-2.2,2.2s1,2.2,2.2,2.2h53.5c1.2,0,2.2-1,2.2-2.2C88.4,64.9,87.4,63.9,86.2,63.9z
		"/>
	<path class="st0" d="M32.6,78h39.1c1.2,0,2.2-1,2.2-2.2s-1-2.2-2.2-2.2H32.6c-1.2,0-2.2,1-2.2,2.2C30.5,77,31.4,78,32.6,78z"/>
	<path class="st0" d="M86.2,83.4H32.6c-1.2,0-2.2,1-2.2,2.2s1,2.2,2.2,2.2h53.5c1.2,0,2.2-1,2.2-2.2S87.4,83.4,86.2,83.4z"/>
	<path class="st0" d="M32.6,97.4h39.1c1.2,0,2.2-1,2.2-2.2s-1-2.2-2.2-2.2H32.6c-1.2,0-2.2,1-2.2,2.2C30.5,96.4,31.4,97.4,32.6,97.4
		z"/>
	<path class="st0" d="M86.2,102.8H32.6c-1.2,0-2.2,1-2.2,2.2s1,2.2,2.2,2.2h53.5c1.2,0,2.2-1,2.2-2.2S87.4,102.8,86.2,102.8z"/>
	<path class="st0" d="M86.2,112.5H71.7c-1.2,0-2.2,1-2.2,2.2s1,2.2,2.2,2.2h14.5c1.2,0,2.2-1,2.2-2.2
		C88.4,113.5,87.4,112.5,86.2,112.5z"/>
</g>
</svg>
