<?xml version="1.0" encoding="utf-8"?>
<!-- Generator: Adobe Illustrator 25.2.3, SVG Export Plug-In . SVG Version: 6.00 Build 0)  -->
<svg version="1.1" id="Layer_1" xmlns="http://www.w3.org/2000/svg" xmlns:xlink="http://www.w3.org/1999/xlink" x="0px" y="0px"
	 viewBox="0 0 128 128" style="enable-background:new 0 0 128 128;" xml:space="preserve">
<style type="text/css">
	.st0{fill:#FFFFFF;}
</style>
<g>
	<path class="st0" d="M121.3,3.4H6.7C3,3.4,0,6.4,0,10.1v83.6c0,3.7,3,6.7,6.7,6.7h41c-0.6,11.1-3.7,18-4.9,20.3h-5
		c-1,0-1.9,0.8-1.9,1.9s0.8,1.9,1.9,1.9h52.4c1,0,1.9-0.8,1.9-1.9s-0.8-1.9-1.9-1.9h-5c-1.2-2.3-4.2-9.1-4.9-20.3h41
		c3.7,0,6.7-3,6.7-6.7V10.1C128,6.4,125,3.4,121.3,3.4z M6.7,7.2h114.5c1.6,0,3,1.3,3,3v65.6h-5.4V14.4c0-1-0.8-1.9-1.9-1.9H11
		c-1,0-1.9,0.8-1.9,1.9v61.4H3.8V10.1C3.8,8.5,5.1,7.2,6.7,7.2z M12.9,75.8V16.3h102.2v59.5H12.9z M81,120.8H47
		c2.7-6.4,4.2-13.3,4.5-20.3h25C76.7,107.5,78.3,114.4,81,120.8z M121.3,96.7H6.7c-1.6,0-3-1.3-3-3V79.5h120.5v14.2
		C124.2,95.4,122.9,96.7,121.3,96.7z"/>
	<path class="st0" d="M64,81.6c-3.6,0-6.5,2.9-6.5,6.5s2.9,6.5,6.5,6.5s6.5-2.9,6.5-6.5S67.6,81.6,64,81.6z M64,90.9
		c-1.5,0-2.7-1.2-2.7-2.7s1.2-2.7,2.7-2.7s2.7,1.2,2.7,2.7l0,0C66.7,89.7,65.5,90.9,64,90.9z"/>
	<path class="st0" d="M98.1,22.8H29.9c-1,0-1.9,0.8-1.9,1.9v42.7c0,1,0.8,1.9,1.9,1.9l0,0h68.2c1,0,1.9-0.8,1.9-1.9l0,0V24.7
		C100,23.7,99.1,22.8,98.1,22.8z M42.1,44.2H31.8v-6.9h10.3V44.2z M45.9,37.3h50.3v6.9H45.9V37.3z M31.8,47.9h10.3v6.9H31.8V47.9z
		 M45.9,47.9h50.3v6.9H45.9V47.9z M96.2,33.5H45.9v-6.9h50.3V33.5z M42.1,26.6v6.9H31.8v-6.9H42.1z M31.8,58.6h10.3v6.9H31.8V58.6z
		 M45.9,65.5v-6.9h50.3v6.9H45.9z"/>
</g>
</svg>
