<?xml version="1.0" encoding="utf-8"?>
<!-- Generator: Adobe Illustrator 25.2.3, SVG Export Plug-In . SVG Version: 6.00 Build 0)  -->
<svg version="1.1" id="Layer_1" xmlns="http://www.w3.org/2000/svg" xmlns:xlink="http://www.w3.org/1999/xlink" x="0px" y="0px"
	 viewBox="0 0 128 128" style="enable-background:new 0 0 128 128;" xml:space="preserve">
<style type="text/css">
	.st0{fill:#FFFFFF;}
</style>
<g>
	<g>
		<g>
			<path class="st0" d="M105.5,66.3h-4V6.2c0-1.2-1-2.2-2.3-2.2h-72c-1.3,0-2.3,1-2.3,2.2v47.7h-4V6.2c0-3.4,2.8-6.2,6.3-6.2h72
				c3.5,0,6.3,2.8,6.3,6.2V66.3z"/>
		</g>
		<g>
			<rect x="52" y="109.8" class="st0" width="18.6" height="4"/>
		</g>
		<g>
			<rect x="39" y="100.6" class="st0" width="25.1" height="4"/>
		</g>
		<g>
			<rect x="30.4" y="12.5" class="st0" width="65.7" height="4"/>
		</g>
	</g>
	<g>
		<path class="st0" d="M119.6,128h-4v-7.5l0.8-0.6c3-2.2,4.7-5.6,4.7-9.2V87.2l-0.2-5.1c0-1.8-1.4-3.1-3.1-3.1
			c-3.1,0-3.1,1.2-3.1,1.8l0,0h-4v-1.3c0-1.7-1.4-3-3.1-3s-3.1,1.4-3.1,3h-4V77c0-1.7-1.4-3-3.1-3s-3.1,1.4-3.1,3v2.8l0,0h-4
			c0-6.8,0-28.9,0-28.9c0-1.8-1.5-3.2-3.3-3.2s-3.2,1.4-3.2,3.2v50.8l-4,0.1l-0.1-2.5V88.8c0-3.1-2.6-5.7-5.8-5.7h-0.6v7.4l0.2,1.6
			l-0.2,0.1v10.6l14,16.5c1.2,0.7,3.8,2.2,5.3,2.5l1.5,0.4v5.8h-4v-2.8c-2.3-0.9-4.9-2.5-5.2-2.7l-0.3-0.2l-15.4-18.1V90.8l-0.1-1.5
			h0.1v-6.4h-0.1l0.1-2.3v-1.3h0.1v-0.1h4.5c2.2,0,4.2,0.7,5.9,2V51c0-4,3.3-7.2,7.2-7.2c4,0,7.3,3.2,7.3,7.2l0,0c0,0,0,10.9,0,19.8
			c0.9-0.4,2-0.7,3.1-0.7c2.7,0,5,1.5,6.2,3.7c1.1-0.7,2.5-1.2,3.9-1.2c2.5,0,4.8,1.3,6,3.4c1.1-0.5,2.5-0.8,4.1-0.8
			c3.9,0,7.1,3.2,7.1,7l0.2,5.1v23.5c0,4.6-2,8.8-5.5,11.8v5.4H119.6z"/>
	</g>
	<g>
		<g>
			<path class="st0" d="M31.7,112.3l-3.7-1.5c1.3-3.1,2-6.6,2-10.2c0-7.7-3.2-14.8-8.3-18.6l-1.2-0.9l3.6-10.7l3.4,0.1
				c1.8,0.1,3.4-0.6,4.7-1.8c1.3-1.2,2-2.8,2-4.6v-1.2l-14-0.2l-7,15.6v32.8h-4V77.4l8.4-18.8L38,58.9l0.1,1.9c0,0.2,0,0.4,0,0.5
				v2.8c0,2.8-1.2,5.4-3.2,7.4s-4.7,3-7.6,3h-0.4l-1.7,5.2c5.4,4.6,8.7,12.5,8.7,20.9C33.9,104.6,33.1,108.7,31.7,112.3z"/>
		</g>
	</g>
	<g>
		<polygon class="st0" points="47.1,128 43.1,128 43.1,113.9 6.9,113.9 6.9,128 2.9,128 2.9,109.9 47.1,109.9 		"/>
	</g>
	<g>
		<path class="st0" d="M59.4,42.1H34.5V22.7h24.8v19.4H59.4z M38.5,38.1h16.8V26.7H38.5V38.1z"/>
	</g>
	<g>
		<rect x="33.6" y="48.4" class="st0" width="39.6" height="4"/>
	</g>
	<g>
		<rect x="42.7" y="58.7" class="st0" width="30.5" height="4"/>
	</g>
	<g>
		<rect x="42.7" y="69" class="st0" width="30.5" height="4"/>
	</g>
	<g>
		<rect x="33.6" y="79.3" class="st0" width="29.5" height="4"/>
	</g>
	<g>
		<path class="st0" d="M89.1,37.4h-4v-4h4V37.4z M89.1,29.4h-4v-4h4V29.4z"/>
	</g>
</g>
</svg>
