<?xml version="1.0" encoding="utf-8"?>
<!-- Generator: Adobe Illustrator 25.2.3, SVG Export Plug-In . SVG Version: 6.00 Build 0)  -->
<svg version="1.1" id="Layer_1" xmlns="http://www.w3.org/2000/svg" xmlns:xlink="http://www.w3.org/1999/xlink" x="0px" y="0px"
	 viewBox="0 0 128 128" style="enable-background:new 0 0 128 128;" xml:space="preserve">
<style type="text/css">
	.st0{fill:#FFFFFF;}
</style>
<g>
	<path class="st0" d="M115.6,119.8H12.7c-6.8,0-12.2-5.5-12.2-12.2V58.1c0-1.6,1.3-2.8,2.8-2.8s2.8,1.3,2.8,2.8v49.5
		c0,3.6,3,6.5,6.6,6.5h102.9c3.6,0,6.5-2.9,6.6-6.5V58.1c0-1.6,1.3-2.8,2.8-2.8c1.6,0,2.8,1.3,2.8,2.8v49.5
		C127.9,114.3,122.4,119.8,115.6,119.8z"/>
	<path class="st0" d="M64.1,82.8c-0.3,0-0.7-0.1-1-0.2L2.2,60.8C0.7,60.5-0.3,59,0,57.4c0.3-1.5,1.8-2.5,3.4-2.2
		c0.3,0.1,0.5,0.1,0.7,0.3L65,77.4c1.4,0.6,2.1,2.3,1.5,3.7C66.2,82.1,65.2,82.7,64.1,82.8z"/>
	<path class="st0" d="M64.1,82.8c-1.6,0-2.8-1.3-2.8-2.8c0-1.2,0.7-2.3,1.9-2.7l60.9-21.8c1.5-0.6,3.1,0.1,3.7,1.6
		c0.6,1.5-0.1,3.1-1.6,3.7c0,0-0.1,0-0.2,0.1L65.1,82.6C64.8,82.7,64.5,82.8,64.1,82.8z"/>
	<path class="st0" d="M3.2,60.9c-1.6-0.1-2.8-1.4-2.7-3c0-0.8,0.4-1.6,1.1-2.1l22.3-17.4c1.2-1,3-0.9,4,0.3s0.9,3-0.3,4
		c-0.1,0.1-0.2,0.1-0.3,0.2L4.9,60.3C4.5,60.7,3.9,60.9,3.2,60.9z M49.9,25c-1.6,0-2.8-1.3-2.8-2.9c0-0.9,0.4-1.7,1.1-2.2L62.4,8.8
		c1.2-1,3-0.7,4,0.5s0.7,3-0.5,4L51.7,24.4C51.2,24.7,50.6,25,49.9,25z"/>
	<path class="st0" d="M125.1,60.9c-0.6,0-1.2-0.2-1.7-0.6L100.9,43c-1.3-1-1.5-2.8-0.6-4c1-1.3,2.8-1.5,4-0.6l0,0l22.5,17.3
		c1.2,1,1.5,2.7,0.5,4C126.8,60.4,126,60.9,125.1,60.9L125.1,60.9z M78.4,25c-0.6,0-1.2-0.2-1.7-0.6L62.4,13.3c-1.2-1-1.5-2.7-0.5-4
		c1-1.2,2.7-1.5,4-0.5l0,0l14.2,11.1c1.2,1,1.5,2.7,0.5,4C80.1,24.6,79.2,25,78.4,25z"/>
	<path class="st0" d="M102.6,69c-1.6,0-2.8-1.3-2.8-2.8V25H28.5v41.2c0,1.6-1.3,2.8-2.8,2.8s-2.8-1.3-2.8-2.8V19.3h82.6v46.9
		C105.5,67.7,104.2,69,102.6,69z"/>
	<path class="st0" d="M44.9,50.5c-6.3,0-11.2-3.8-11.2-8.5s4.9-8.5,11.2-8.5c5.7,0,10.5,3.2,11.1,7.5c0.2,1.6-0.8,3-2.4,3.3
		c-1.6,0.2-3-0.8-3.3-2.4c-0.2-1.3-2.5-2.8-5.5-2.8s-5.5,1.5-5.5,2.8s2.2,2.8,5.5,2.8c1.6,0,2.8,1.3,2.8,2.8c0,1.6-1.3,2.8-2.8,2.8
		L44.9,50.5z"/>
	<path class="st0" d="M44.9,61.9c-5.7,0-10.5-3.2-11.1-7.6c-0.2-1.6,0.9-3,2.4-3.3c1.6-0.2,3,0.9,3.3,2.4c0,1.1,2.2,2.7,5.5,2.7
		s5.5-1.7,5.5-2.8s-2.2-2.8-5.5-2.8c-1.6,0-2.8-1.3-2.8-2.8c0-1.6,1.3-2.8,2.8-2.8c6.3,0,11.2,3.8,11.2,8.5S51.2,61.9,44.9,61.9z"/>
	<path class="st0" d="M44.9,68.2c-1.6,0-2.8-1.3-2.8-2.8V29.9c0-1.6,1.3-2.8,2.8-2.8c1.6,0,2.8,1.3,2.8,2.8v35.4
		C47.8,66.9,46.5,68.2,44.9,68.2z"/>
	<path class="st0" d="M94.6,37.9H66.8c-1.6,0-2.8-1.3-2.8-2.8s1.3-2.8,2.8-2.8h27.8c1.6,0,2.8,1.3,2.8,2.8S96.2,37.9,94.6,37.9z"/>
	<path class="st0" d="M94.6,49.8H66.8c-1.6,0-2.8-1.3-2.8-2.8c0-1.6,1.3-2.8,2.8-2.8h27.8c1.6,0,2.8,1.3,2.8,2.8
		C97.5,48.5,96.2,49.8,94.6,49.8z"/>
	<path class="st0" d="M94.6,61.9H66.8c-1.6,0-2.8-1.3-2.8-2.8c0-1.6,1.3-2.8,2.8-2.8h27.8c1.6,0,2.8,1.3,2.8,2.8
		C97.5,60.6,96.2,61.9,94.6,61.9z"/>
</g>
</svg>
