<?xml version="1.0" encoding="utf-8"?>
<!-- Generator: Adobe Illustrator 25.2.3, SVG Export Plug-In . SVG Version: 6.00 Build 0)  -->
<svg version="1.1" id="Layer_1" xmlns="http://www.w3.org/2000/svg" xmlns:xlink="http://www.w3.org/1999/xlink" x="0px" y="0px"
	 viewBox="0 0 128 128" style="enable-background:new 0 0 128 128;" xml:space="preserve">
<style type="text/css">
	.st0{fill:#FFFFFF;}
</style>
<g id="Layer_x0020_1">
	<g id="_445077192">
		<path id="_445079832" class="st0" d="M10.9,117.8l23.4-45.5l0,0c0.8-1.5,1.9-2.9,3.3-3.9c1.4-1,3-1.6,4.7-1.6H96V59
			c0-1-0.4-1.9-1-2.5c-0.6-0.7-1.6-1.2-2.6-1.3l0.5-5.1c2.3,0.2,4.4,1.3,5.8,2.9c1.5,1.6,2.4,3.7,2.4,6v7.7h20.6l0,0
			c1.1,0,2.2,0.3,3.1,0.8s1.8,1.3,2.3,2.2c0.6,0.9,0.9,2.1,0.9,3.3c0,1.2-0.3,2.5-1.1,3.8l0,0l-21.7,40.5l0,0
			c-0.7,1.4-2.1,2.8-3.7,3.9c-1.5,1-3.3,1.7-5,1.7l0,0H9.4l0,0c-1.3,0-2.5-0.2-3.6-0.7s-2.2-1.2-3.1-2c-0.9-0.9-1.6-1.9-2.1-3.1
			C0.3,116,0,114.7,0,113.5l0,0V47.8l0,0c0-2.6,1.1-4.9,2.8-6.7c1.7-1.7,4.1-2.7,6.7-2.7l0,0h6.4v5.1H9.5l0,0
			c-1.2,0-2.3,0.5-3.1,1.3s-1.3,1.8-1.3,3l0,0v65.7l0,0c0,0.6,0.1,1.1,0.3,1.6c0.2,0.5,0.5,1,0.9,1.4s0.9,0.7,1.4,0.9
			c0.5,0.2,1.1,0.3,1.7,0.3l0,0L10.9,117.8L10.9,117.8z M38.8,74.6l-22.2,43.2h79.9l0,0c0.6,0,1.4-0.3,2.2-0.8c0.9-0.6,1.6-1.3,2-2
			l0,0l21.7-40.6l0,0c0.3-0.6,0.4-1,0.4-1.4c0-0.2-0.1-0.5-0.1-0.6c-0.1-0.2-0.2-0.3-0.4-0.4c-0.2-0.1-0.4-0.2-0.7-0.2l0,0h-23H96
			H42.2c-0.6,0-1.1,0.2-1.7,0.6C39.9,73,39.3,73.7,38.8,74.6L38.8,74.6L38.8,74.6z"/>
		<path id="_445069632" class="st0" d="M17.9,93.7v-81l0,0c0-2.2,0.9-4.5,2.4-6.1c1.5-1.7,3.5-2.8,5.8-2.8h44.2
			c0.7,0,1.4,0.2,2.1,0.4C72.9,4.6,73.5,5,74,5.5l14.3,15.8l0,0c0.4,0.5,0.8,1,1,1.6s0.4,1.2,0.4,1.9l0,0v38.6h-5.1V24.8l0,0l0,0
			l0,0L70.2,9H26.1c-0.7,0-1.4,0.4-1.9,1c-0.7,0.8-1.1,1.8-1.1,2.7l0,0v81H17.9L17.9,93.7z M70.2,8.9L70.2,8.9L70.2,8.9L70.2,8.9z
			 M70.2,8.9L70.2,8.9L70.2,8.9L70.2,8.9L70.2,8.9L70.2,8.9z"/>
		<path id="_445068864" class="st0" d="M35.8,28.2c-1.4,0-2.6,1.1-2.6,2.6c0,1.5,1.1,2.6,2.6,2.6h35.8c1.4,0,2.6-1.1,2.6-2.6
			s-1.1-2.6-2.6-2.6H35.8z"/>
		<path id="_445079376" class="st0" d="M35.8,41c-1.4,0-2.6,1.1-2.6,2.6c0,1.4,1.1,2.6,2.6,2.6h35.8c1.4,0,2.6-1.1,2.6-2.6
			c0-1.4-1.1-2.6-2.6-2.6H35.8z"/>
		<path id="_445068984" class="st0" d="M35.8,53.8c-1.4,0-2.6,1.1-2.6,2.6c0,1.4,1.1,2.6,2.6,2.6h35.8c1.4,0,2.6-1.1,2.6-2.6
			c0-1.4-1.1-2.6-2.6-2.6H35.8z"/>
	</g>
</g>
</svg>
