<?xml version="1.0" encoding="utf-8"?>
<!-- Generator: Adobe Illustrator 25.2.3, SVG Export Plug-In . SVG Version: 6.00 Build 0)  -->
<svg version="1.1" id="Layer_1" xmlns="http://www.w3.org/2000/svg" xmlns:xlink="http://www.w3.org/1999/xlink" x="0px" y="0px"
	 viewBox="0 0 128 128" style="enable-background:new 0 0 128 128;" xml:space="preserve">
<style type="text/css">
	.st0{fill:#FFFFFF;}
</style>
<g>
	<path class="st0" d="M125.2,109.4H2.8c-1.6,0-2.8-1.3-2.8-2.8V33.3c0-1.6,1.3-2.8,2.8-2.8H58c1.6,0,2.8,1.3,2.8,2.8
		s-1.3,2.8-2.8,2.8H5.7v67.6h116.6V36.1H70c-1.6,0-2.8-1.3-2.8-2.8s1.3-2.8,2.8-2.8h55.2c1.6,0,2.8,1.3,2.8,2.8v73.3
		C128,108.2,126.7,109.4,125.2,109.4z"/>
	<path class="st0" d="M42.1,91.3H16.8c-1.6,0-2.8-1.3-2.8-2.8V78.4c0-5.4,4.3-9.7,9.7-9.7h11.5c5.4,0,9.7,4.3,9.7,9.7v10.1
		C44.9,90.1,43.6,91.3,42.1,91.3z M19.6,85.6h19.6v-7.3c0-2.2-1.8-4-4-4H23.7c-2.2,0-4,1.8-4,4l0,0L19.6,85.6z"/>
	<path class="st0" d="M29.4,67.2c-5.1,0-9.3-4.1-9.3-9.3c0-5.1,4.1-9.3,9.3-9.3c5.1,0,9.3,4.1,9.3,9.3l0,0
		C38.7,63,34.5,67.1,29.4,67.2z M29.4,54.2c-2,0-3.6,1.6-3.7,3.6c0,2,1.6,3.6,3.6,3.7c2,0,3.6-1.6,3.7-3.6c0,0,0,0,0-0.1
		C33,55.9,31.4,54.2,29.4,54.2L29.4,54.2z"/>
	<path class="st0" d="M110.1,61.2H58.7c-1.6,0-2.8-1.3-2.8-2.8s1.3-2.8,2.8-2.8h51.4c1.6,0,2.8,1.3,2.8,2.8S111.7,61.2,110.1,61.2z"
		/>
	<path class="st0" d="M70,41.3H58c-1.6,0-2.8-1.3-2.8-2.8V26.1c0.4-4.5,4.3-7.8,8.8-7.5c4.5-0.3,8.4,3,8.8,7.5v12.4
		C72.8,40,71.6,41.3,70,41.3z M60.8,35.6h6.3v-9.5c0-0.9-1.4-1.8-3.2-1.8s-3.2,1-3.2,1.8L60.8,35.6z"/>
	<path class="st0" d="M110.1,73.9H58.7c-1.6,0-2.8-1.3-2.8-2.8s1.3-2.8,2.8-2.8h51.4c1.6,0,2.8,1.3,2.8,2.8S111.7,73.9,110.1,73.9z"
		/>
	<path class="st0" d="M110.1,86.7H58.7c-1.6,0-2.8-1.3-2.8-2.8s1.3-2.8,2.8-2.8h51.4c1.6,0,2.8,1.3,2.8,2.8S111.7,86.7,110.1,86.7z"
		/>
</g>
</svg>
