<?xml version="1.0" encoding="utf-8"?>
<!-- Generator: Adobe Illustrator 25.2.3, SVG Export Plug-In . SVG Version: 6.00 Build 0)  -->
<svg version="1.1" id="Layer_1" xmlns="http://www.w3.org/2000/svg" xmlns:xlink="http://www.w3.org/1999/xlink" x="0px" y="0px"
	 viewBox="0 0 128 128" style="enable-background:new 0 0 128 128;" xml:space="preserve">
<style type="text/css">
	.st0{fill:#FFFFFF;}
	.st1{fill-rule:evenodd;clip-rule:evenodd;fill:#FFFFFF;}
</style>
<g id="Layer_x0020_1">
	<g id="_445079640">
		<g>
			<path id="_445084176" class="st0" d="M64,0.1c17.7,0,33.7,7.2,45.2,18.7C120.8,30.4,128,46.4,128,64s-7.2,33.6-18.8,45.2
				S81.6,127.9,64,127.9s-33.7-7.2-45.2-18.7C7.2,97.6,0,81.6,0,64s7.2-33.6,18.8-45.2C30.3,7.3,46.3,0.1,64,0.1L64,0.1z
				 M105.6,22.5C95,11.8,80.3,5.2,64,5.2s-31,6.6-41.6,17.2C11.7,33.1,5.1,47.8,5.1,64s6.6,30.9,17.2,41.5
				C33,116.2,47.7,122.8,64,122.8s31-6.6,41.6-17.2s17.2-25.3,17.2-41.5S116.3,33.1,105.6,22.5z"/>
			<g>
				<path id="_445080960" class="st0" d="M66.6,13.3c0-1.4-1.1-2.6-2.6-2.6c-1.4,0-2.6,1.1-2.6,2.6v10.2c0,1.4,1.1,2.6,2.6,2.6
					c1.4,0,2.6-1.1,2.6-2.6V13.3z"/>
				<path id="_445083624" class="st0" d="M66.6,105c0-1.4-1.1-2.6-2.6-2.6c-1.4,0-2.6,1.1-2.6,2.6v10.2c0,1.4,1.1,2.6,2.6,2.6
					c1.4,0,2.6-1.1,2.6-2.6V105z"/>
				<path id="_445081128" class="st0" d="M101.8,30c1-1,1-2.6,0-3.6s-2.6-1-3.6,0L91,33.6c-1,1-1,2.6,0,3.6s2.6,1,3.6,0L101.8,30
					L101.8,30z"/>
				<path id="_445075704" class="st0" d="M37,94.8c1-1,1-2.6,0-3.6s-2.6-1-3.6,0l-7.2,7.2c-1,1-1,2.6,0,3.6s2.6,1,3.6,0L37,94.8
					L37,94.8z"/>
				<path id="_445082184" class="st0" d="M115,66.8c1.4,0,2.6-1.1,2.6-2.6s-1.1-2.6-2.6-2.6h-10.2c-1.4,0-2.6,1.1-2.6,2.6
					c0,1.4,1.1,2.6,2.6,2.6H115z"/>
				<path id="_445080936" class="st0" d="M23.3,66.8c1.4,0,2.6-1.1,2.6-2.6s-1.1-2.6-2.6-2.6H13c-1.4,0-2.6,1.1-2.6,2.6
					c0,1.4,1.1,2.6,2.6,2.6H23.3z"/>
				<path id="_445082832" class="st0" d="M98.2,102.1c1,1,2.6,1,3.6,0s1-2.6,0-3.6l-7.2-7.2c-1-1-2.6-1-3.6,0s-1,2.6,0,3.6
					L98.2,102.1L98.2,102.1z"/>
				<path id="_445072560" class="st0" d="M33.4,37.3c1,1,2.6,1,3.6,0s1-2.6,0-3.6l-7.2-7.2c-1-1-2.6-1-3.6,0s-1,2.6,0,3.6L33.4,37.3
					L33.4,37.3z"/>
				<path id="_445075728" class="st0" d="M66.6,33.3c0-1.4-1.1-2.6-2.6-2.6c-1.4,0-2.6,1.1-2.6,2.6V64c0,1.4,1.1,2.6,2.6,2.6h28.2
					c1.4,0,2.6-1.1,2.6-2.6c0-1.4-1.1-2.6-2.6-2.6H66.6V33.3L66.6,33.3z"/>
				<ellipse id="_445078344" class="st1" cx="64" cy="64" rx="6.6" ry="6.6"/>
			</g>
		</g>
	</g>
</g>
</svg>
