<?xml version="1.0" encoding="utf-8"?>
<!-- Generator: Adobe Illustrator 25.2.3, SVG Export Plug-In . SVG Version: 6.00 Build 0)  -->
<svg version="1.1" id="Layer_1" xmlns="http://www.w3.org/2000/svg" xmlns:xlink="http://www.w3.org/1999/xlink" x="0px" y="0px"
	 viewBox="0 0 128 128" style="enable-background:new 0 0 128 128;" xml:space="preserve">
<style type="text/css">
	.st0{fill:#FFFFFF;}
</style>
<g>
	<g>
		<path class="st0" d="M118.9,16.1h-4v-3.6h-5.3v3.6h-4v-4.6c0-1.7,1.4-3,3-3h7.3c1.7,0,3,1.4,3,3V16.1L118.9,16.1z"/>
	</g>
	<g>
		<polygon class="st0" points="112.2,100.1 105.6,85.1 105.6,82.7 109.6,82.7 109.6,84.3 112.2,90.2 114.9,84.3 114.9,82.7 
			118.9,82.7 118.9,85.1 		"/>
	</g>
	<g>
		<polygon class="st0" points="69.9,128 9,128 9,0 97.9,0 97.9,99.4 93.9,99.4 93.9,4 13,4 13,124 69.9,124 		"/>
	</g>
	<g>
		<g>
			<path class="st0" d="M73.4,126.9V103h23.4L73.4,126.9z M77.4,107v10.1l9.9-10.1H77.4z"/>
		</g>
	</g>
	<g>
		<rect x="40.4" y="23" class="st0" width="38.7" height="4"/>
	</g>
	<g>
		<rect x="40.4" y="32.7" class="st0" width="38.7" height="4"/>
	</g>
	<g>
		<polygon class="st0" points="27.7,35.8 21.8,31.9 24,28.6 26.8,30.4 32.3,23.4 35.4,25.9 		"/>
	</g>
	<g>
		<rect x="40.4" y="52" class="st0" width="38.7" height="4"/>
	</g>
	<g>
		<rect x="40.4" y="61.7" class="st0" width="38.7" height="4"/>
	</g>
	<g>
		<polygon class="st0" points="27.7,64.8 21.8,60.9 24,57.5 26.8,59.4 32.3,52.4 35.4,54.9 		"/>
	</g>
	<g>
		<rect x="40.4" y="80.9" class="st0" width="38.7" height="4"/>
	</g>
	<g>
		<rect x="40.4" y="90.6" class="st0" width="38.7" height="4"/>
	</g>
	<g>
		<polygon class="st0" points="27.7,93.7 21.8,89.9 24,86.5 26.8,88.4 32.3,81.4 35.4,83.8 		"/>
	</g>
	<g>
		<path class="st0" d="M119,84.4h-13.5V19.2H119V84.4z M109.5,80.4h5.5V23.2h-5.5V80.4z"/>
	</g>
</g>
</svg>
